<?xml version="1.0" encoding="UTF-8"?>
<svg id="Camada_2" data-name="Camada 2" xmlns="http://www.w3.org/2000/svg" viewBox="0 0 34.08 34.08">
  <g id="Camada_1-2" data-name="Camada 1">
    <g>
      <path d="M13.1,20.32c.82-.38.9-1.71.08-2.11-.08-.04-.45-.17-.52-.17h-3.11v2.44h2.98c.1,0,.46-.11.57-.17Z"/>
      <path d="M12.24,22.33c-.88-.05-1.8.04-2.68,0v2.87c.88-.03,1.8.05,2.68,0,1.05-.05,1.97-.24,1.9-1.53-.06-1.11-.98-1.3-1.9-1.35Z"/>
      <path d="M20.37,20.61c-.98.04-1.45.91-1.48,1.8h3.08c.02-.97-.56-1.84-1.61-1.8Z"/>
      <path d="M17.04,0C7.63,0,0,7.63,0,17.04s7.63,17.04,17.04,17.04,17.04-7.63,17.04-17.04S26.45,0,17.04,0ZM18.25,16.93h4.28v1.45h-4.28v-1.45ZM15.7,25.92c-1.06,1.3-2.61,1-4.1,1.12h-4.22v-10.83c1.66.05,3.37-.07,5.03,0,.42.02.96.05,1.36.15,2.12.49,2.89,3.07,1.24,4.55l-.6.41c2.13.5,2.61,3.02,1.3,4.62ZM21.04,25.56c.54-.18.63-.6.88-1.04l2.02.39c-.63,1.82-2.28,2.49-4.12,2.25-2.74-.37-3.56-3.19-2.88-5.57.98-3.42,5.87-3.48,6.87-.08.21.71.26,1.45.27,2.19h-5.18c-.1,1.17.93,2.27,2.14,1.86Z"/>
    </g>
  </g>
</svg>
