<?xml version="1.0" encoding="UTF-8"?>
<svg id="Camada_2" data-name="Camada 2" xmlns="http://www.w3.org/2000/svg" viewBox="0 0 34.33 33.51">
  <g id="Camada_1-2" data-name="Camada 1">
    <path d="M20.36,24.78c1.05-.16,2.11-.33,3.11-.7,2.67-.97,4.13-2.96,4.54-5.75.36-2.42.14-4.76-1.58-6.62.09-.46.25-.91.29-1.38.06-.76-.01-1.6-.2-2.33-.04-.14-.23-.77-.29-.84-.15-.17-1.02,0-1.25.04-1.28.29-2.39,1.04-3.51,1.67-2.81-.75-5.74-.72-8.55,0-1.12-.67-2.26-1.4-3.56-1.67-.28-.06-.86-.19-1.11-.06-.14.07-.37.93-.41,1.13-.25,1.17-.21,2.31.17,3.45-1.67,1.76-1.93,4.1-1.63,6.42.46,3.47,2.44,5.53,5.81,6.33.61.14,1.24.2,1.84.35-.64.59-.92,1.41-1.06,2.25-1.28.6-2.72.67-3.91-.17-1.05-.73-1.33-2.11-2.59-2.73-.4-.2-1.46-.45-1.82-.13-.44.39.8,1.03,1.02,1.22,1.57,1.36,1.22,3.42,3.54,4.17,1.16.37,2.5.27,3.67.04-.03.78.03,1.57.03,2.35,0,.26.03.57.02.8-.06,1.15-1.07.92-1.84.65C5.04,31.1.58,25.08.06,18.69-1.06,5.02,13.46-4.49,25.51,2.19c10.18,5.64,11.87,19.65,3.35,27.59-1.42,1.32-4.24,3.23-6.13,3.67-1.48.35-1.3-.99-1.29-1.98.02-1.24.13-2.53.05-3.78-.06-1.06-.36-2.16-1.15-2.91Z"/>
  </g>
</svg>
