<?xml version="1.0" encoding="UTF-8"?>
<svg id="Camada_2" data-name="Camada 2" xmlns="http://www.w3.org/2000/svg" viewBox="0 0 34.08 34.08">
  <g id="Camada_1-2" data-name="Camada 1">
    <g>
      <path d="M14.18,13.45c-.89,2.38,1.2,4.78,3.68,4.23,2.51-.55,3.34-3.77,1.42-5.48-1.66-1.48-4.32-.83-5.1,1.25Z"/>
      <path d="M25.28,10.43c-.1-2.14-1.71-3.86-3.85-4.04h-8.74c-2.01.17-3.64,1.82-3.8,3.83v8.74c.24,2.22,1.93,3.73,4.14,3.83,2.79.13,5.7-.07,8.5-.03.95-.11,1.85-.53,2.52-1.2.75-.74,1.17-1.76,1.23-2.81.14-2.73-.11-5.58,0-8.32ZM21.29,17.35c-1.92,2.86-6.14,2.95-8.16.14-2.31-3.21-.15-7.69,3.78-7.89,4.07-.21,6.67,4.35,4.39,7.75ZM21.5,10.02c-.96-1.17.74-2.65,1.78-1.58,1.13,1.16-.74,2.85-1.78,1.58Z"/>
      <path d="M17.04,0C7.63,0,0,7.63,0,17.04s7.63,17.04,17.04,17.04,17.04-7.63,17.04-17.04S26.45,0,17.04,0ZM27.19,18.77c-.14,3.3-2.62,5.72-5.89,5.89-2.72.14-5.51-.05-8.24.03-3.15,0-5.87-2.5-6.08-5.66v-8.9c.18-2.96,2.6-5.42,5.56-5.65h9c3.1.22,5.51,2.74,5.65,5.83-.09,2.79.12,5.66,0,8.45Z"/>
    </g>
  </g>
</svg>
