<?xml version="1.0" encoding="UTF-8"?>
<svg id="Camada_2" data-name="Camada 2" xmlns="http://www.w3.org/2000/svg" viewBox="0 0 34.08 34.04">
  <g id="Camada_1-2" data-name="Camada 1">
    <g>
      <path d="M18.09,25.96c-.08.16-.29.74-.29.89v7.2c1.83-.08,3.58-.45,5.21-1.06v-6.18c0-2.51-3.83-3.1-4.92-.84Z"/>
      <path d="M34.08,17.04C34.08,7.63,26.45,0,17.04,0S0,7.63,0,17.04c0,5.8,2.9,10.92,7.33,14v-9.97h4.12v12.06c.75.26,1.52.48,2.31.63v-12.69h3.76v1.86c.09.02.09-.03.13-.08,2.05-2.24,5.15-2.86,7.64-.87.78.62,1.75,2.38,1.75,3.37v5.46c4.26-3.1,7.04-8.11,7.04-13.77ZM9.57,19.07c-3.16.23-3.48-4.53-.35-4.74,3.12-.21,3.4,4.52.35,4.74Z"/>
    </g>
  </g>
</svg>
