<?xml version="1.0" encoding="UTF-8"?>
<svg id="Camada_2" data-name="Camada 2" xmlns="http://www.w3.org/2000/svg" viewBox="0 0 34.08 34.08">
  <g id="Camada_1-2" data-name="Camada 1">
    <g>
      <path d="M15.88,18.4c0,1.24.62,2.14,1.86,2.14,1.64,0,3.13-2.09,3.44-3.83l.59-3.19c-.28-.08-.76-.2-1.41-.2-2.48,0-4.48,2.34-4.48,5.08Z"/>
      <path d="M17.04,0C7.63,0,0,7.63,0,17.04s7.63,17.04,17.04,17.04,17.04-7.63,17.04-17.04S26.45,0,17.04,0ZM23.24,22.07c-1.13,0-2.17-.76-2.09-2.48h-.11c-.99,1.66-2.28,2.48-3.98,2.48s-3.05-1.33-3.05-3.55c0-3.5,2.76-6.68,6.68-6.68,1.21,0,2.28.25,3.02.59l-.96,5.1c-.42,2.14-.08,3.13.85,3.16,1.44.03,3.04-1.89,3.04-5.16,0-4.09-2.45-7.02-6.82-7.02-4.6,0-8.46,3.64-8.46,9.36,0,4.71,3.07,7.61,7.25,7.61,1.61,0,3.1-.34,4.26-.99l.45,1.21c-1.55.82-3.13,1.13-5.02,1.13-4.62,0-8.54-3.38-8.54-8.8,0-5.81,4.03-10.83,10.29-10.83,4.91,0,8.21,3.44,8.21,8.15,0,4.23-2.37,6.71-5.02,6.71Z"/>
    </g>
  </g>
</svg>